HIERARCHY
ROOT Hips
{
  OFFSET -4.35178 90.3298 111.633
  CHANNELS 6 Xposition Yposition Zposition Zrotation Xrotation Yrotation
  JOINT LeftUpLeg
  {
    OFFSET 0.103456 1.85784 10.5485
    CHANNELS 6 Xposition Yposition Zposition Zrotation Xrotation Yrotation
    JOINT LeftLeg
    {
      OFFSET 43.5 -4.2e-05 0
      CHANNELS 6 Xposition Yposition Zposition Zrotation Xrotation Yrotation
      JOINT LeftFoot
      {
        OFFSET 42.3722 1.9e-05 0
        CHANNELS 6 Xposition Yposition Zposition Zrotation Xrotation Yrotation
        JOINT LeftToe
        {
          OFFSET 17.3 0 0
          CHANNELS 6 Xposition Yposition Zposition Zrotation Xrotation Yrotation
          End Site
          {
            OFFSET 0 0 0
          }
        }
      }
    }
  }
  JOINT RightUpLeg
  {
    OFFSET 0.103456 1.85782 -10.5485
    CHANNELS 6 Xposition Yposition Zposition Zrotation Xrotation Yrotation
    JOINT RightLeg
    {
      OFFSET 43.5 -2.7e-05 0
      CHANNELS 6 Xposition Yposition Zposition Zrotation Xrotation Yrotation
      JOINT RightFoot
      {
        OFFSET 42.3723 0 0
        CHANNELS 6 Xposition Yposition Zposition Zrotation Xrotation Yrotation
        JOINT RightToe
        {
          OFFSET 17.3 0 1.7e-05
          CHANNELS 6 Xposition Yposition Zposition Zrotation Xrotation Yrotation
          End Site
          {
            OFFSET 0 0 0
          }
        }
      }
    }
  }
  JOINT Spine
  {
    OFFSET 6.90197 -2.60373 0
    CHANNELS 6 Xposition Yposition Zposition Zrotation Xrotation Yrotation
    JOINT Spine1
    {
      OFFSET 12.5881 0 0
      CHANNELS 6 Xposition Yposition Zposition Zrotation Xrotation Yrotation
      JOINT Spine2
      {
        OFFSET 12.3432 -1.8e-05 0
        CHANNELS 6 Xposition Yposition Zposition Zrotation Xrotation Yrotation
        JOINT Neck
        {
          OFFSET 25.8329 2.3e-05 0
          CHANNELS 6 Xposition Yposition Zposition Zrotation Xrotation Yrotation
          JOINT Head
          {
            OFFSET 11.7666 0 0
            CHANNELS 6 Xposition Yposition Zposition Zrotation Xrotation Yrotation
            End Site
            {
              OFFSET 0 0 0
            }
          }
        }
        JOINT LeftShoulder
        {
          OFFSET 19.7459 -1.48035 6.0001
          CHANNELS 6 Xposition Yposition Zposition Zrotation Xrotation Yrotation
          JOINT LeftArm
          {
            OFFSET 11.2841 1.8e-05 -2e-05
            CHANNELS 6 Xposition Yposition Zposition Zrotation Xrotation Yrotation
            JOINT LeftForeArm
            {
              OFFSET 33 -1.3e-05 1.9e-05
              CHANNELS 6 Xposition Yposition Zposition Zrotation Xrotation Yrotation
              JOINT LeftHand
              {
                OFFSET 25.2 3.2e-05 1.1e-05
                CHANNELS 6 Xposition Yposition Zposition Zrotation Xrotation Yrotation
                End Site
                {
                  OFFSET 0 0 0
                }
              }
            }
          }
        }
        JOINT RightShoulder
        {
          OFFSET 19.7461 -1.48036 -6.00008
          CHANNELS 6 Xposition Yposition Zposition Zrotation Xrotation Yrotation
          JOINT RightArm
          {
            OFFSET 11.2841 0 0
            CHANNELS 6 Xposition Yposition Zposition Zrotation Xrotation Yrotation
            JOINT RightForeArm
            {
              OFFSET 33.0001 1.6e-05 0
              CHANNELS 6 Xposition Yposition Zposition Zrotation Xrotation Yrotation
              JOINT RightHand
              {
                OFFSET 25.1998 0.000123 0.000432
                CHANNELS 6 Xposition Yposition Zposition Zrotation Xrotation Yrotation
                End Site
                {
                  OFFSET 0 0 0
                }
              }
            }
          }
        }
      }
    }
  }
}
MOTION
Frames:	11
Frame Time:	0.0333333
-25.3326 119.627 4.64614 -94.9231 7.15432 -177.51 0.103456 1.85784 10.5485 0.532486 -4.22302 -159.169 43.5 -4.2e-05 1e-05 -9.82639 -10.6844 -3.4616 42.3722 1.9e-05 0 68.7394 -15.674 15.2992 17.3 0 3e-06 21.4546 -1e-06 0.003093 0.103456 1.85782 -10.5485 -7.65202 16.2951 166.924 43.5 -2.7e-05 4e-06 -15.7272 13.5703 5.58157 42.3723 -3.55271e-15 1e-05 99.1453 51.5289 -27.6441 17.3 -6e-06 1.7e-05 21.4546 -1.9e-05 -0.003116 6.90197 -2.60373 -3e-06 11.0933 -2.5997 1.65591 12.5881 1e-05 8e-06 12.3105 -4.67531 3.8658 12.3432 -1.8e-05 -5e-06 12.0492 -4.24341 4.16473 25.8329 2.3e-05 7e-06 7.75643 -14.5624 4.62127 11.7666 -8e-06 -6e-06 3.25772 -24.8522 14.2896 19.7459 -1.48035 6.0001 -179.626 9.0226 -80.8435 11.2841 1.8e-05 -2e-05 44.513 -30.3702 72.7479 33 -1.3e-05 1.9e-05 -46.3072 -24.5861 -5.76753 25.2 3.2e-05 1.1e-05 9.78827 -34.3609 42.1048 19.7461 -1.48036 -6.00008 -165.21 -22.8875 80.7244 11.2841 -2.84217e-14 -1e-06 -18.8546 3.94638 -35.8915 33.0001 1.6e-05 -1e-06 -58.2203 -17.1894 22.225 25.1998 0.000123 0.000432 -8.42397 -34.3085 25.918 
-25.5096 120.359 6.88956 -94.8251 5.75483 -177.423 0.103456 1.85784 10.5485 -2.55958 -2.55873 -159.997 43.5 -4.2e-05 1e-05 -14.3228 -10.7512 -3.91772 42.3722 1.9e-05 0 72.4121 -15.0994 14.6759 17.3 3.55271e-15 3e-06 21.4546 -1e-06 0.003093 0.103456 1.85782 -10.5485 -5.85182 15.3697 167.538 43.5 -2.7e-05 4e-06 -12.6391 14.0226 6.02779 42.3723 -3.55271e-15 1e-05 98.287 51.0529 -27.6215 17.3 -6e-06 1.7e-05 21.4546 -1.9e-05 -0.003116 6.90197 -2.60373 -3e-06 11.288 -2.62393 1.7549 12.5881 1e-05 8e-06 12.7044 -4.69107 4.07582 12.3432 -1.8e-05 -5e-06 12.4416 -4.24026 4.37504 25.8329 2.3e-05 7e-06 7.74433 -14.1748 4.46091 11.7666 -8e-06 -6e-06 2.35988 -24.7271 14.5495 19.7459 -1.48035 6.0001 -179.217 9.74754 -80.4145 11.2841 1.8e-05 -2e-05 43.495 -29.5175 73.042 33 -1.3e-05 1.9e-05 -46.249 -24.6114 -5.24302 25.2 3.2e-05 1.1e-05 13.2651 -34.0711 43.9011 19.7461 -1.48036 -6.00008 -165.114 -22.2246 81.483 11.2841 0 -1e-06 -18.0084 6.09948 -35.9772 33.0001 1.6e-05 -1e-06 -60.6125 -17.2785 22.4311 25.1998 0.000123 0.000432 -7.55839 -34.0933 26.0632 
-25.6581 120.978 8.87294 -94.7723 4.64711 -177.355 0.103456 1.85784 10.5485 -4.66711 -1.58517 -161.52 43.5 -4.2e-05 1e-05 -17.5786 -10.524 -4.26927 42.3722 1.9e-05 0 75.4346 -14.3919 13.4037 17.3 -7.10543e-15 3e-06 21.4546 -1e-06 0.003093 0.103456 1.85782 -10.5485 -4.12544 14.6366 168.008 43.5 -2.7e-05 4e-06 -9.54245 14.3821 6.42519 42.3723 1.06581e-14 1e-05 96.7697 50.808 -27.0855 17.3 -6e-06 1.7e-05 21.4546 -1.9e-05 -0.003116 6.90197 -2.60373 -3e-06 11.4523 -2.6018 1.89661 12.5881 1e-05 8e-06 13.0352 -4.60687 4.35942 12.3432 -1.8e-05 -5e-06 12.7682 -4.13378 4.65241 25.8329 2.3e-05 7e-06 7.8537 -14.4029 4.55357 11.7666 -8e-06 -6e-06 0.601882 -25.1933 14.1159 19.7459 -1.48035 6.0001 -179.025 10.036 -80.231 11.2841 1.8e-05 -2e-05 42.7116 -28.9975 73.2741 33 -1.3e-05 1.9e-05 -46.6115 -24.657 -4.69428 25.2 3.2e-05 1.1e-05 15.2814 -33.3931 44.3662 19.7461 -1.48036 -6.00008 -164.874 -21.7603 82.2157 11.2841 0 -1e-06 -16.8409 8.14664 -35.8308 33.0001 1.6e-05 -1e-06 -61.546 -17.6072 22.7687 25.1998 0.000123 0.000432 -6.89863 -33.8527 26.0826 
-25.7237 121.542 10.6699 -94.7648 3.68536 -177.297 0.103456 1.85784 10.5485 -6.01792 -1.40243 -163.7 43.5 -4.2e-05 1e-05 -19.8498 -9.92101 -4.33375 42.3722 1.9e-05 0 77.5599 -13.5677 11.8412 17.3 3.55271e-15 3e-06 21.4546 -1e-06 0.003093 0.103456 1.85782 -10.5485 -2.67302 13.7499 168.471 43.5 -2.7e-05 4e-06 -6.76825 14.8838 6.85817 42.3723 0 1e-05 95.0465 50.6895 -26.4024 17.3 -6e-06 1.7e-05 21.4546 -1.9e-05 -0.003116 6.90197 -2.60373 -3e-06 11.5592 -2.55595 2.09617 12.5881 1e-05 8e-06 13.2501 -4.466 4.75017 12.3432 -1.8e-05 -5e-06 12.9768 -3.96599 5.03317 25.8329 2.3e-05 7e-06 7.98077 -15.0566 4.88813 11.7666 -8e-06 -6e-06 -1.24184 -26.0052 13.2617 19.7459 -1.48035 6.0001 -178.994 9.93396 -80.0911 11.2841 1.8e-05 -2e-05 42.8257 -28.8059 73.905 33 -1.3e-05 1.9e-05 -47.164 -25.1082 -4.15066 25.2 3.2e-05 1.1e-05 15.6684 -33.0105 44.1517 19.7461 -1.48036 -6.00008 -164.645 -21.5179 82.6916 11.2841 0 -1e-06 -15.4306 9.67266 -35.3941 33.0001 1.6e-05 -1e-06 -61.1591 -18.0087 23.206 25.1998 0.000123 0.000432 -6.44537 -33.2627 25.6029 
-25.7632 122.011 12.309 -94.6736 2.7945 -177.245 0.103456 1.85784 10.5485 -7.06755 -1.32178 -166.39 43.5 -4.2e-05 1e-05 -21.6962 -9.17959 -4.19648 42.3722 1.9e-05 0 79.7261 -12.6334 10.0993 17.3 -3.55271e-15 3e-06 21.4546 -1e-06 0.003093 0.103456 1.85782 -10.5485 -1.47129 12.8064 169.006 43.5 -2.7e-05 4e-06 -4.60244 15.394 7.22303 42.3723 -3.55271e-15 1e-05 93.7013 50.9112 -25.7154 17.3 -6e-06 1.7e-05 21.4546 -1.9e-05 -0.003116 6.90197 -2.60373 -3e-06 11.6537 -2.51303 2.32622 12.5881 1e-05 8e-06 13.4405 -4.32449 5.20132 12.3432 -1.8e-05 -5e-06 13.1602 -3.79426 5.47419 25.8329 2.3e-05 7e-06 8.03914 -15.7273 5.27093 11.7666 -8e-06 -6e-06 -2.62016 -26.7871 12.5013 19.7459 -1.48035 6.0001 -179.074 9.58162 -80.1261 11.2841 1.8e-05 -2e-05 43.5207 -28.9014 74.7234 33 -1.3e-05 1.9e-05 -47.7829 -25.8919 -3.62459 25.2 3.2e-05 1.1e-05 15.2321 -32.875 43.7595 19.7461 -1.48036 -6.00008 -164.549 -21.5883 82.877 11.2841 0 -1e-06 -14.0916 10.4632 -34.591 33.0001 1.6e-05 -1e-06 -59.4646 -18.4272 23.7452 25.1998 0.000123 0.000432 -6.15597 -32.6586 25.0171 
-25.7894 122.328 13.8182 -94.5297 1.93237 -177.193 0.103456 1.85784 10.5485 -7.82039 -1.12197 -169.334 43.5 -4.2e-05 1e-05 -22.9387 -8.35945 -4.08258 42.3722 1.9e-05 7.10543e-15 81.3015 -12.2388 8.19246 17.3 0 3e-06 21.4546 -1e-06 0.003093 0.103456 1.85782 -10.5485 -0.690125 12.1992 169.688 43.5 -2.7e-05 4e-06 -3.42052 15.708 7.29565 42.3723 -3.55271e-15 1e-05 93.1668 51.0917 -25.3032 17.3 -6e-06 1.7e-05 21.4546 -1.9e-05 -0.003116 6.90197 -2.60373 -3e-06 11.7319 -2.48128 2.56423 12.5881 1e-05 8e-06 13.5987 -4.20381 5.66996 12.3432 -1.8e-05 -5e-06 13.3114 -3.64274 5.93394 25.8329 2.3e-05 7e-06 8.07241 -16.363 5.64981 11.7666 -8e-06 -6e-06 -3.5653 -27.4746 11.9162 19.7459 -1.48035 6.0001 -179.252 9.19779 -80.3334 11.2841 1.8e-05 -2e-05 44.2891 -29.1826 75.3198 33 -1.3e-05 1.9e-05 -48.3633 -26.6498 -3.25303 25.2 3.2e-05 1.1e-05 14.222 -32.8069 42.9047 19.7461 -1.48036 -6.00008 -164.477 -21.822 82.9874 11.2841 0 -1e-06 -13.0786 10.6116 -33.7507 33.0001 1.6e-05 -1e-06 -56.6699 -18.9096 24.3639 25.1998 0.000123 0.000432 -6.09281 -32.172 24.4056 
-25.8126 122.444 15.2742 -94.3421 1.18261 -177.145 0.103456 1.85784 10.5485 -8.17348 -0.648174 -172.145 43.5 -4.2e-05 1e-05 -23.3488 -7.5244 -4.15151 42.3722 1.9e-05 0 82.3685 -12.0868 6.0819 17.3 0 3e-06 21.4546 -1e-06 0.003093 0.103456 1.85782 -10.5485 -0.386982 11.8095 170.485 43.5 -2.7e-05 4e-06 -3.18168 15.7134 7.17323 42.3723 -3.55271e-15 1e-05 92.9811 50.9763 -24.7932 17.3 -6e-06 1.7e-05 21.4546 -1.9e-05 -0.003116 6.90197 -2.60373 -3e-06 11.8064 -2.45566 2.7832 12.5881 1e-05 8e-06 13.7491 -4.09922 6.10174 12.3432 -1.8e-05 -5e-06 13.4553 -3.50975 6.358 25.8329 2.3e-05 7e-06 8.0708 -16.9112 5.96461 11.7666 -8e-06 -6e-06 -4.32346 -27.9895 11.5118 19.7459 -1.48035 6.0001 -179.397 8.93162 -80.7283 11.2841 1.8e-05 -2e-05 44.8814 -29.5313 75.5706 33 -1.3e-05 1.9e-05 -49.0826 -27.3229 -2.97336 25.2 3.2e-05 1.1e-05 12.959 -32.7976 41.9567 19.7461 -1.48036 -6.00008 -164.371 -22.1375 83.0595 11.2841 0 -1e-06 -12.4329 10.3526 -33.0833 33.0001 1.6e-05 -1e-06 -53.3305 -19.2776 24.9653 25.1998 0.000123 0.000432 -5.94914 -31.8426 23.918 
-25.8454 122.459 16.6602 -94.1532 0.671081 -177.109 0.103456 1.85784 10.5485 -8.10511 -0.526015 -174.788 43.5 -4.2e-05 1e-05 -22.9258 -6.6986 -4.08047 42.3722 1.9e-05 0 82.943 -11.6422 4.05548 17.3 0 3e-06 21.4546 -1e-06 0.003093 0.103456 1.85782 -10.5485 -0.258268 11.681 171.227 43.5 -2.7e-05 4e-06 -3.1835 15.5977 7.13376 42.3723 -7.10543e-15 1e-05 92.8984 50.706 -24.4344 17.3 -6e-06 1.7e-05 21.4546 -1.9e-05 -0.003116 6.90197 -2.60373 -3e-06 11.8748 -2.42487 2.94558 12.5881 1e-05 8e-06 13.8854 -3.99676 6.41964 12.3432 -1.8e-05 -5e-06 13.5863 -3.38606 6.66858 25.8329 2.3e-05 7e-06 8.05918 -17.266 6.1894 11.7666 -8e-06 -6e-06 -4.89969 -28.312 11.4126 19.7459 -1.48035 6.0001 -179.592 8.79245 -81.1389 11.2841 1.8e-05 -2e-05 45.1547 -30.011 75.377 33 -1.3e-05 1.9e-05 -49.9028 -27.7473 -2.881 25.2 3.2e-05 1.1e-05 11.9452 -32.8066 41.3021 19.7461 -1.48036 -6.00008 -164.312 -22.5846 83.0353 11.2841 0 -1e-06 -12.2578 9.70836 -32.6452 33.0001 1.6e-05 -1e-06 -49.5796 -19.2256 25.4255 25.1998 0.000123 0.000432 -6.0267 -31.4621 23.3486 
-25.8994 122.481 17.9338 -94.0381 0.485581 -177.095 0.103456 1.85784 10.5485 -7.80267 -0.822357 -177.165 43.5 -4.2e-05 1e-05 -21.8143 -5.99707 -3.81556 42.3722 1.9e-05 0 83.4173 -11.5076 2.37344 17.3 3.55271e-15 3e-06 21.4546 -1e-06 0.003093 0.103456 1.85782 -10.5485 -0.188696 11.7499 171.846 43.5 -2.7e-05 4e-06 -3.10883 15.4071 7.21092 42.3723 3.55271e-15 1e-05 92.3637 50.3385 -23.7796 17.3 -6e-06 1.7e-05 21.4546 -1.9e-05 -0.003116 6.90197 -2.60373 -3e-06 11.9272 -2.41311 3.04108 12.5881 1e-05 8e-06 13.9904 -3.94808 6.60837 12.3432 -1.8e-05 -5e-06 13.6882 -3.32431 6.85367 25.8329 2.3e-05 7e-06 8.06154 -17.4718 6.34038 11.7666 -8e-06 -6e-06 -5.15303 -28.4684 11.5117 19.7459 -1.48035 6.0001 -179.794 8.73421 -81.4652 11.2841 1.8e-05 -2e-05 45.5074 -30.4969 75.1029 33 -1.3e-05 1.9e-05 -50.7802 -27.8695 -3.03703 25.2 3.2e-05 1.1e-05 10.6289 -32.9774 40.6665 19.7461 -1.48036 -6.00008 -164.311 -23.1415 82.9153 11.2841 0 -1e-06 -12.3567 9.12515 -32.6193 33.0001 1.6e-05 -1e-06 -46.1374 -18.4219 25.5161 25.1998 0.000123 0.000432 -5.91176 -30.4774 22.237 
-25.9614 122.508 19.0595 -93.9412 0.68827 -177.108 0.103456 1.85784 10.5485 -7.24093 -1.09537 -179.063 43.5 -4.2e-05 1e-05 -20.0036 -5.60154 -3.54177 42.3722 1.9e-05 0 83.446 -11.3205 1.18524 17.3 -3.55271e-15 3e-06 21.4546 -1e-06 0.003093 0.103456 1.85782 -10.5485 -0.849641 11.6182 172.641 43.5 -2.7e-05 4e-06 -4.19183 15.0207 7.23928 42.3723 7.10543e-15 1e-05 92.2353 50.4421 -23.0339 17.3 -6e-06 1.7e-05 21.4546 -1.9e-05 -0.003116 6.90197 -2.60373 -3e-06 11.9635 -2.39884 3.04625 12.5881 1e-05 8e-06 14.0617 -3.91561 6.61651 12.3432 -1.8e-05 -5e-06 13.7587 -3.2904 6.85976 25.8329 2.3e-05 7e-06 8.04422 -17.3583 6.30486 11.7666 -8e-06 -6e-06 -4.88061 -28.2841 11.9276 19.7459 -1.48035 6.0001 -179.981 8.76509 -81.7674 11.2841 1.8e-05 -2e-05 45.816 -30.9742 74.7739 33 -1.3e-05 1.9e-05 -51.2985 -27.8333 -3.2781 25.2 3.2e-05 1.1e-05 8.43977 -33.2258 39.6411 19.7461 -1.48036 -6.00008 -164.328 -23.7117 82.7275 11.2841 2.84217e-14 -1e-06 -12.5661 8.85015 -33.1166 33.0001 1.6e-05 -1e-06 -43.2821 -16.901 25.194 25.1998 0.000123 0.000432 -5.39025 -28.9256 20.7052 
-25.9535 122.521 20.0709 -93.8359 1.19877 -177.145 0.103456 1.85784 10.5485 -6.45561 -1.20701 179.553 43.5 -4.2e-05 1e-05 -17.8322 -5.72354 -3.33949 42.3722 1.9e-05 0 83.4261 -11.0251 0.859228 17.3 -7.10543e-15 3e-06 21.4546 -1e-06 0.003093 0.103456 1.85782 -10.5485 -1.42654 11.5315 173.477 43.5 -2.7e-05 4e-06 -5.04133 14.6777 7.15414 42.3723 7.10543e-15 1e-05 91.9082 50.3902 -22.2568 17.3 -6e-06 1.7e-05 21.4546 -1.9e-05 -0.003116 6.90197 -2.60373 -3e-06 11.9787 -2.40003 2.97555 12.5881 1e-05 8e-06 14.0913 -3.93261 6.47693 12.3432 -1.8e-05 -5e-06 13.7903 -3.31538 6.72154 25.8329 2.3e-05 7e-06 8.00503 -17.1664 6.17722 11.7666 -8e-06 -6e-06 -4.14535 -27.9056 12.3862 19.7459 -1.48035 6.0001 179.827 8.78885 -81.9799 11.2841 1.8e-05 -2e-05 45.8608 -31.3755 74.3537 33 -1.3e-05 1.9e-05 -51.1953 -27.5854 -3.55669 25.2 3.2e-05 1.1e-05 6.77119 -33.3415 38.8555 19.7461 -1.48036 -6.00008 -164.249 -24.2836 82.4541 11.2841 0 -1e-06 -12.9944 8.55551 -33.995 33.0001 1.6e-05 -1e-06 -40.9891 -15.3644 24.7096 25.1998 0.000123 0.000432 -4.81162 -27.7821 19.6965 
